<?xml version="1.0" encoding="UTF-8"?>
<!DOCTYPE svg PUBLIC "-//W3C//DTD SVG 1.1//EN" "http://www.w3.org/Graphics/SVG/1.1/DTD/svg11.dtd">
<!-- Creator: CorelDRAW -->
<svg xmlns="http://www.w3.org/2000/svg" xml:space="preserve" width="420mm" height="297mm" style="shape-rendering:geometricPrecision; text-rendering:geometricPrecision; image-rendering:optimizeQuality; fill-rule:evenodd; clip-rule:evenodd"
viewBox="0 0 420 297"
 xmlns:xlink="http://www.w3.org/1999/xlink">
 <defs>
  <style type="text/css">
   <![CDATA[
    .str1 {stroke:#1F1A17;stroke-width:0.0762}
    .str0 {stroke:#969594;stroke-width:0.1764}
    .str2 {stroke:#969594;stroke-width:0.18}
    .fil0 {fill:none}
    .fil91 {fill:url(#id0)}
    .fil77 {fill:url(#id1)}
    .fil79 {fill:url(#id2)}
    .fil89 {fill:url(#id3)}
    .fil34 {fill:url(#id4)}
    .fil33 {fill:url(#id5)}
    .fil30 {fill:url(#id6)}
    .fil29 {fill:url(#id7)}
    .fil26 {fill:url(#id8)}
    .fil25 {fill:url(#id9)}
    .fil18 {fill:url(#id10)}
    .fil17 {fill:url(#id11)}
    .fil38 {fill:url(#id12)}
    .fil37 {fill:url(#id13)}
    .fil10 {fill:url(#id14)}
    .fil9 {fill:url(#id15)}
    .fil42 {fill:url(#id16)}
    .fil43 {fill:url(#id17)}
    .fil134 {fill:url(#id18)}
    .fil135 {fill:url(#id19)}
    .fil64 {fill:url(#id20)}
    .fil108 {fill:url(#id21)}
    .fil65 {fill:url(#id22)}
    .fil41 {fill:url(#id23)}
    .fil66 {fill:url(#id24)}
    .fil88 {fill:url(#id25)}
    .fil76 {fill:url(#id26)}
    .fil78 {fill:url(#id27)}
    .fil90 {fill:url(#id28)}
    .fil20 {fill:url(#id29)}
    .fil19 {fill:url(#id30)}
    .fil28 {fill:url(#id31)}
    .fil27 {fill:url(#id32)}
    .fil32 {fill:url(#id33)}
    .fil31 {fill:url(#id34)}
    .fil36 {fill:url(#id35)}
    .fil35 {fill:url(#id36)}
    .fil12 {fill:url(#id37)}
    .fil11 {fill:url(#id38)}
    .fil40 {fill:url(#id39)}
    .fil39 {fill:url(#id40)}
    .fil109 {fill:url(#id41)}
    .fil137 {fill:url(#id42)}
    .fil136 {fill:url(#id43)}
    .fil67 {fill:url(#id44)}
    .fil24 {fill:url(#id45)}
    .fil22 {fill:url(#id46)}
    .fil21 {fill:url(#id47)}
    .fil23 {fill:url(#id48)}
    .fil16 {fill:url(#id49)}
    .fil8 {fill:url(#id50)}
    .fil94 {fill:url(#id51)}
    .fil107 {fill:url(#id52)}
    .fil105 {fill:url(#id53)}
    .fil92 {fill:url(#id54)}
    .fil6 {fill:url(#id55)}
    .fil14 {fill:url(#id56)}
    .fil13 {fill:url(#id57)}
    .fil5 {fill:url(#id58)}
    .fil93 {fill:url(#id59)}
    .fil104 {fill:url(#id60)}
    .fil106 {fill:url(#id61)}
    .fil95 {fill:url(#id62)}
    .fil7 {fill:url(#id63)}
    .fil15 {fill:url(#id64)}
    .fil132 {fill:url(#id65)}
    .fil130 {fill:url(#id66)}
    .fil131 {fill:url(#id67)}
    .fil133 {fill:url(#id68)}
    .fil51 {fill:url(#id69)}
    .fil103 {fill:url(#id70)}
    .fil99 {fill:url(#id71)}
    .fil97 {fill:url(#id72)}
    .fil101 {fill:url(#id73)}
    .fil49 {fill:url(#id74)}
    .fil48 {fill:url(#id75)}
    .fil100 {fill:url(#id76)}
    .fil96 {fill:url(#id77)}
    .fil98 {fill:url(#id78)}
    .fil102 {fill:url(#id79)}
    .fil50 {fill:url(#id80)}
    .fil4 {fill:url(#id81)}
    .fil128 {fill:url(#id82)}
    .fil126 {fill:url(#id83)}
    .fil2 {fill:url(#id84)}
    .fil1 {fill:url(#id85)}
    .fil127 {fill:url(#id86)}
    .fil129 {fill:url(#id87)}
    .fil3 {fill:url(#id88)}
    .fil46 {fill:url(#id89)}
    .fil112 {fill:url(#id90)}
    .fil116 {fill:url(#id91)}
    .fil120 {fill:url(#id92)}
    .fil124 {fill:url(#id93)}
    .fil122 {fill:url(#id94)}
    .fil118 {fill:url(#id95)}
    .fil114 {fill:url(#id96)}
    .fil110 {fill:url(#id97)}
    .fil44 {fill:url(#id98)}
    .fil45 {fill:url(#id99)}
    .fil111 {fill:url(#id100)}
    .fil115 {fill:url(#id101)}
    .fil119 {fill:url(#id102)}
    .fil123 {fill:url(#id103)}
    .fil125 {fill:url(#id104)}
    .fil121 {fill:url(#id105)}
    .fil117 {fill:url(#id106)}
    .fil113 {fill:url(#id107)}
    .fil47 {fill:url(#id108)}
    .fil62 {fill:url(#id109)}
    .fil60 {fill:url(#id110)}
    .fil61 {fill:url(#id111)}
    .fil63 {fill:url(#id112)}
    .fil75 {fill:url(#id113)}
    .fil54 {fill:url(#id114)}
    .fil58 {fill:url(#id115)}
    .fil56 {fill:url(#id116)}
    .fil52 {fill:url(#id117)}
    .fil73 {fill:url(#id118)}
    .fil72 {fill:url(#id119)}
    .fil53 {fill:url(#id120)}
    .fil57 {fill:url(#id121)}
    .fil59 {fill:url(#id122)}
    .fil55 {fill:url(#id123)}
    .fil74 {fill:url(#id124)}
    .fil83 {fill:url(#id125)}
    .fil81 {fill:url(#id126)}
    .fil80 {fill:url(#id127)}
    .fil82 {fill:url(#id128)}
    .fil71 {fill:url(#id129)}
    .fil87 {fill:url(#id130)}
    .fil85 {fill:url(#id131)}
    .fil69 {fill:url(#id132)}
    .fil68 {fill:url(#id133)}
    .fil84 {fill:url(#id134)}
    .fil86 {fill:url(#id135)}
    .fil70 {fill:url(#id136)}
   ]]>
  </style>
  <linearGradient id="id0" gradientUnits="userSpaceOnUse" x1="331.995" y1="224.292" x2="323.081" y2="224.292">
   <stop offset="0" style="stop-color:#00A539"/>
   <stop offset="1" style="stop-color:#00A539"/>
  </linearGradient>
  <linearGradient id="id1" gradientUnits="userSpaceOnUse" x1="78.4337" y1="163.983" x2="78.4337" y2="168.976">
   <stop offset="0" style="stop-color:#59B54C"/>
   <stop offset="1" style="stop-color:#59B54C"/>
  </linearGradient>
  <linearGradient id="id2" gradientUnits="userSpaceOnUse" xlink:href="#id1" x1="344.059" y1="163.983" x2="344.059" y2="168.976">
  </linearGradient>
  <linearGradient id="id3" gradientUnits="userSpaceOnUse" xlink:href="#id0" x1="90.4975" y1="224.292" x2="99.4123" y2="224.292">
  </linearGradient>
  <linearGradient id="id4" gradientUnits="userSpaceOnUse" x1="78.8641" y1="200.469" x2="88.3153" y2="200.469">
   <stop offset="0" style="stop-color:#7EC480"/>
   <stop offset="1" style="stop-color:#7EC480"/>
  </linearGradient>
  <linearGradient id="id5" gradientUnits="userSpaceOnUse" xlink:href="#id4" x1="78.8641" y1="85.0825" x2="88.3153" y2="85.0825">
  </linearGradient>
  <linearGradient id="id6" gradientUnits="userSpaceOnUse" xlink:href="#id4" x1="86.7138" y1="219.129" x2="97.0132" y2="219.129">
  </linearGradient>
  <linearGradient id="id7" gradientUnits="userSpaceOnUse" xlink:href="#id4" x1="86.7138" y1="66.4222" x2="97.0132" y2="66.4222">
  </linearGradient>
  <linearGradient id="id8" gradientUnits="userSpaceOnUse" xlink:href="#id4" x1="92.8096" y1="228.15" x2="102.394" y2="228.15">
  </linearGradient>
  <linearGradient id="id9" gradientUnits="userSpaceOnUse" xlink:href="#id4" x1="92.8096" y1="57.4013" x2="102.394" y2="57.4013">
  </linearGradient>
  <linearGradient id="id10" gradientUnits="userSpaceOnUse" xlink:href="#id4" x1="112.086" y1="249.401" x2="123.095" y2="249.401">
  </linearGradient>
  <linearGradient id="id11" gradientUnits="userSpaceOnUse" xlink:href="#id4" x1="112.086" y1="36.1507" x2="123.095" y2="36.1507">
  </linearGradient>
  <linearGradient id="id12" gradientUnits="userSpaceOnUse" xlink:href="#id4" x1="74.7073" y1="172.287" x2="82.1571" y2="172.287">
  </linearGradient>
  <linearGradient id="id13" gradientUnits="userSpaceOnUse" xlink:href="#id4" x1="74.7073" y1="113.265" x2="82.1571" y2="113.265">
  </linearGradient>
  <linearGradient id="id14" gradientUnits="userSpaceOnUse" xlink:href="#id4" x1="177.154" y1="273.383" x2="185.861" y2="273.383">
  </linearGradient>
  <linearGradient id="id15" gradientUnits="userSpaceOnUse" xlink:href="#id4" x1="177.154" y1="12.1685" x2="185.861" y2="12.1685">
  </linearGradient>
  <linearGradient id="id16" gradientUnits="userSpaceOnUse" x1="206.169" y1="10.6998" x2="211" y2="10.6998">
   <stop offset="0" style="stop-color:#00923F"/>
   <stop offset="1" style="stop-color:#00923F"/>
  </linearGradient>
  <linearGradient id="id17" gradientUnits="userSpaceOnUse" x1="340.668" y1="134.288" x2="347.35" y2="134.288">
   <stop offset="0" style="stop-color:#00A439"/>
   <stop offset="1" style="stop-color:#00A439"/>
  </linearGradient>
  <linearGradient id="id18" gradientUnits="userSpaceOnUse" xlink:href="#id0" x1="188.794" y1="12.1417" x2="192.786" y2="12.1417">
  </linearGradient>
  <linearGradient id="id19" gradientUnits="userSpaceOnUse" xlink:href="#id0" x1="188.794" y1="273.41" x2="192.786" y2="273.41">
  </linearGradient>
  <linearGradient id="id20" gradientUnits="userSpaceOnUse" xlink:href="#id0" x1="193.17" y1="12.1416" x2="195.89" y2="12.1416">
  </linearGradient>
  <linearGradient id="id21" gradientUnits="userSpaceOnUse" xlink:href="#id0" x1="74.4148" y1="122.296" x2="82.4528" y2="122.296">
  </linearGradient>
  <linearGradient id="id22" gradientUnits="userSpaceOnUse" xlink:href="#id0" x1="210.565" y1="7.6347" x2="217.722" y2="7.6347">
  </linearGradient>
  <linearGradient id="id23" gradientUnits="userSpaceOnUse" xlink:href="#id1" x1="196.312" y1="12.1417" x2="198.838" y2="12.1417">
  </linearGradient>
  <linearGradient id="id24" gradientUnits="userSpaceOnUse" xlink:href="#id1" x1="184.554" y1="12.1106" x2="189.546" y2="12.1106">
  </linearGradient>
  <linearGradient id="id25" gradientUnits="userSpaceOnUse" xlink:href="#id0" x1="90.4973" y1="61.2595" x2="99.4125" y2="61.2595">
  </linearGradient>
  <linearGradient id="id26" gradientUnits="userSpaceOnUse" xlink:href="#id1" x1="78.4337" y1="121.568" x2="78.4337" y2="116.576">
  </linearGradient>
  <linearGradient id="id27" gradientUnits="userSpaceOnUse" xlink:href="#id1" x1="344.059" y1="121.568" x2="344.059" y2="116.576">
  </linearGradient>
  <linearGradient id="id28" gradientUnits="userSpaceOnUse" xlink:href="#id0" x1="331.995" y1="61.2595" x2="323.081" y2="61.2595">
  </linearGradient>
  <linearGradient id="id29" gradientUnits="userSpaceOnUse" xlink:href="#id4" x1="310.407" y1="249.401" x2="299.397" y2="249.401">
  </linearGradient>
  <linearGradient id="id30" gradientUnits="userSpaceOnUse" xlink:href="#id4" x1="310.407" y1="36.1507" x2="299.397" y2="36.1507">
  </linearGradient>
  <linearGradient id="id31" gradientUnits="userSpaceOnUse" xlink:href="#id4" x1="329.683" y1="228.15" x2="320.099" y2="228.15">
  </linearGradient>
  <linearGradient id="id32" gradientUnits="userSpaceOnUse" xlink:href="#id4" x1="329.683" y1="57.4013" x2="320.099" y2="57.4013">
  </linearGradient>
  <linearGradient id="id33" gradientUnits="userSpaceOnUse" xlink:href="#id4" x1="335.779" y1="219.129" x2="325.48" y2="219.129">
  </linearGradient>
  <linearGradient id="id34" gradientUnits="userSpaceOnUse" xlink:href="#id4" x1="335.779" y1="66.4222" x2="325.48" y2="66.4222">
  </linearGradient>
  <linearGradient id="id35" gradientUnits="userSpaceOnUse" xlink:href="#id4" x1="343.629" y1="200.469" x2="334.178" y2="200.469">
  </linearGradient>
  <linearGradient id="id36" gradientUnits="userSpaceOnUse" xlink:href="#id4" x1="343.629" y1="85.0825" x2="334.178" y2="85.0825">
  </linearGradient>
  <linearGradient id="id37" gradientUnits="userSpaceOnUse" xlink:href="#id4" x1="245.339" y1="273.383" x2="236.632" y2="273.383">
  </linearGradient>
  <linearGradient id="id38" gradientUnits="userSpaceOnUse" xlink:href="#id4" x1="245.339" y1="12.1685" x2="236.632" y2="12.1685">
  </linearGradient>
  <linearGradient id="id39" gradientUnits="userSpaceOnUse" xlink:href="#id4" x1="347.786" y1="172.287" x2="340.336" y2="172.287">
  </linearGradient>
  <linearGradient id="id40" gradientUnits="userSpaceOnUse" xlink:href="#id4" x1="347.786" y1="113.265" x2="340.336" y2="113.265">
  </linearGradient>
  <linearGradient id="id41" gradientUnits="userSpaceOnUse" xlink:href="#id0" x1="340.04" y1="122.296" x2="348.078" y2="122.296">
  </linearGradient>
  <linearGradient id="id42" gradientUnits="userSpaceOnUse" xlink:href="#id0" x1="233.699" y1="273.41" x2="229.707" y2="273.41">
  </linearGradient>
  <linearGradient id="id43" gradientUnits="userSpaceOnUse" xlink:href="#id0" x1="233.699" y1="12.1417" x2="229.707" y2="12.1417">
  </linearGradient>
  <linearGradient id="id44" gradientUnits="userSpaceOnUse" xlink:href="#id1" x1="232.947" y1="12.1106" x2="237.939" y2="12.1106">
  </linearGradient>
  <linearGradient id="id45" gradientUnits="userSpaceOnUse" xlink:href="#id4" x1="324.457" y1="235.542" x2="313.56" y2="235.836">
  </linearGradient>
  <linearGradient id="id46" gradientUnits="userSpaceOnUse" xlink:href="#id4" x1="98.0358" y1="235.542" x2="108.933" y2="235.836">
  </linearGradient>
  <linearGradient id="id47" gradientUnits="userSpaceOnUse" xlink:href="#id4" x1="98.0358" y1="50.0097" x2="108.933" y2="49.7155">
  </linearGradient>
  <linearGradient id="id48" gradientUnits="userSpaceOnUse" xlink:href="#id4" x1="324.457" y1="50.0097" x2="313.56" y2="49.7155">
  </linearGradient>
  <linearGradient id="id49" gradientUnits="userSpaceOnUse" xlink:href="#id4" x1="293.655" y1="260.245" x2="282.87" y2="260.687">
  </linearGradient>
  <linearGradient id="id50" gradientUnits="userSpaceOnUse" xlink:href="#id4" x1="274.835" y1="268.081" x2="264.515" y2="268.582">
  </linearGradient>
  <linearGradient id="id51" gradientUnits="userSpaceOnUse" xlink:href="#id0" x1="326.555" y1="53.331" x2="317.578" y2="53.878">
  </linearGradient>
  <linearGradient id="id52" gradientUnits="userSpaceOnUse" xlink:href="#id0" x1="347.61" y1="174.182" x2="339.913" y2="178.848">
  </linearGradient>
  <linearGradient id="id53" gradientUnits="userSpaceOnUse" xlink:href="#id0" x1="74.883" y1="174.182" x2="82.5796" y2="178.848">
  </linearGradient>
  <linearGradient id="id54" gradientUnits="userSpaceOnUse" xlink:href="#id0" x1="95.938" y1="53.331" x2="104.915" y2="53.878">
  </linearGradient>
  <linearGradient id="id55" gradientUnits="userSpaceOnUse" xlink:href="#id4" x1="147.658" y1="268.081" x2="157.978" y2="268.582">
  </linearGradient>
  <linearGradient id="id56" gradientUnits="userSpaceOnUse" xlink:href="#id4" x1="128.838" y1="260.245" x2="139.623" y2="260.687">
  </linearGradient>
  <linearGradient id="id57" gradientUnits="userSpaceOnUse" xlink:href="#id4" x1="128.838" y1="25.306" x2="139.623" y2="24.864">
  </linearGradient>
  <linearGradient id="id58" gradientUnits="userSpaceOnUse" xlink:href="#id4" x1="147.658" y1="17.4707" x2="157.978" y2="16.9699">
  </linearGradient>
  <linearGradient id="id59" gradientUnits="userSpaceOnUse" xlink:href="#id0" x1="95.938" y1="232.22" x2="104.915" y2="231.673">
  </linearGradient>
  <linearGradient id="id60" gradientUnits="userSpaceOnUse" xlink:href="#id0" x1="74.8833" y1="111.37" x2="82.5793" y2="106.702">
  </linearGradient>
  <linearGradient id="id61" gradientUnits="userSpaceOnUse" xlink:href="#id0" x1="347.61" y1="111.369" x2="339.913" y2="106.703">
  </linearGradient>
  <linearGradient id="id62" gradientUnits="userSpaceOnUse" xlink:href="#id0" x1="326.555" y1="232.22" x2="317.578" y2="231.673">
  </linearGradient>
  <linearGradient id="id63" gradientUnits="userSpaceOnUse" xlink:href="#id4" x1="274.835" y1="17.4707" x2="264.515" y2="16.9699">
  </linearGradient>
  <linearGradient id="id64" gradientUnits="userSpaceOnUse" xlink:href="#id4" x1="293.655" y1="25.306" x2="282.87" y2="24.864">
  </linearGradient>
  <linearGradient id="id65" gradientUnits="userSpaceOnUse" xlink:href="#id0" x1="247.183" y1="8.7377" x2="242.143" y2="16.1237">
  </linearGradient>
  <linearGradient id="id66" gradientUnits="userSpaceOnUse" xlink:href="#id0" x1="175.31" y1="8.7377" x2="180.35" y2="16.1237">
  </linearGradient>
  <linearGradient id="id67" gradientUnits="userSpaceOnUse" xlink:href="#id0" x1="175.31" y1="276.814" x2="180.35" y2="269.428">
  </linearGradient>
  <linearGradient id="id68" gradientUnits="userSpaceOnUse" xlink:href="#id0" x1="247.183" y1="276.814" x2="242.143" y2="269.428">
  </linearGradient>
  <linearGradient id="id69" gradientUnits="userSpaceOnUse" xlink:href="#id4" x1="339.961" y1="209.329" x2="330.375" y2="210.942">
  </linearGradient>
  <linearGradient id="id70" gradientUnits="userSpaceOnUse" xlink:href="#id0" x1="341.549" y1="204.314" x2="332.831" y2="206.218">
  </linearGradient>
  <linearGradient id="id71" gradientUnits="userSpaceOnUse" xlink:href="#id0" x1="344.659" y1="194.425" x2="336.035" y2="197.013">
  </linearGradient>
  <linearGradient id="id72" gradientUnits="userSpaceOnUse" xlink:href="#id0" x1="77.8333" y1="194.425" x2="86.4577" y2="197.013">
  </linearGradient>
  <linearGradient id="id73" gradientUnits="userSpaceOnUse" xlink:href="#id0" x1="80.9439" y1="204.314" x2="89.6619" y2="206.218">
  </linearGradient>
  <linearGradient id="id74" gradientUnits="userSpaceOnUse" xlink:href="#id4" x1="82.5318" y1="209.329" x2="92.1174" y2="210.942">
  </linearGradient>
  <linearGradient id="id75" gradientUnits="userSpaceOnUse" xlink:href="#id4" x1="82.5318" y1="76.2222" x2="92.1174" y2="74.6096">
  </linearGradient>
  <linearGradient id="id76" gradientUnits="userSpaceOnUse" xlink:href="#id0" x1="80.9439" y1="81.2373" x2="89.6619" y2="79.3331">
  </linearGradient>
  <linearGradient id="id77" gradientUnits="userSpaceOnUse" xlink:href="#id0" x1="77.8333" y1="91.127" x2="86.4577" y2="88.5378">
  </linearGradient>
  <linearGradient id="id78" gradientUnits="userSpaceOnUse" xlink:href="#id0" x1="344.659" y1="91.1268" x2="336.035" y2="88.538">
  </linearGradient>
  <linearGradient id="id79" gradientUnits="userSpaceOnUse" xlink:href="#id0" x1="341.549" y1="81.2373" x2="332.831" y2="79.3331">
  </linearGradient>
  <linearGradient id="id80" gradientUnits="userSpaceOnUse" xlink:href="#id4" x1="339.961" y1="76.2222" x2="330.375" y2="74.6096">
  </linearGradient>
  <linearGradient id="id81" gradientUnits="userSpaceOnUse" xlink:href="#id4" x1="345.554" y1="190.263" x2="337.542" y2="191.641">
  </linearGradient>
  <linearGradient id="id82" gradientUnits="userSpaceOnUse" xlink:href="#id0" x1="254.595" y1="9.8792" x2="248.375" y2="16.3994">
  </linearGradient>
  <linearGradient id="id83" gradientUnits="userSpaceOnUse" xlink:href="#id0" x1="167.898" y1="9.8787" x2="174.117" y2="16.3999">
  </linearGradient>
  <linearGradient id="id84" gradientUnits="userSpaceOnUse" xlink:href="#id4" x1="76.9388" y1="190.263" x2="84.9506" y2="191.641">
  </linearGradient>
  <linearGradient id="id85" gradientUnits="userSpaceOnUse" xlink:href="#id4" x1="76.9388" y1="95.2888" x2="84.9506" y2="93.9102">
  </linearGradient>
  <linearGradient id="id86" gradientUnits="userSpaceOnUse" xlink:href="#id0" x1="167.898" y1="275.672" x2="174.117" y2="269.152">
  </linearGradient>
  <linearGradient id="id87" gradientUnits="userSpaceOnUse" xlink:href="#id0" x1="254.595" y1="275.672" x2="248.375" y2="269.152">
  </linearGradient>
  <linearGradient id="id88" gradientUnits="userSpaceOnUse" xlink:href="#id4" x1="345.554" y1="95.2888" x2="337.542" y2="93.9102">
  </linearGradient>
  <linearGradient id="id89" gradientUnits="userSpaceOnUse" xlink:href="#id4" x1="317.02" y1="41.6842" x2="307.39" y2="43.5444">
  </linearGradient>
  <linearGradient id="id90" gradientUnits="userSpaceOnUse" xlink:href="#id0" x1="305.183" y1="31.5215" x2="296.805" y2="34.7459">
  </linearGradient>
  <linearGradient id="id91" gradientUnits="userSpaceOnUse" xlink:href="#id0" x1="296.585" y1="25.6057" x2="288.295" y2="29.3033">
  </linearGradient>
  <linearGradient id="id92" gradientUnits="userSpaceOnUse" xlink:href="#id0" x1="278.568" y1="16.4306" x2="270.988" y2="21.5204">
  </linearGradient>
  <linearGradient id="id93" gradientUnits="userSpaceOnUse" xlink:href="#id0" x1="268.11" y1="12.8774" x2="261.331" y2="18.6788">
  </linearGradient>
  <linearGradient id="id94" gradientUnits="userSpaceOnUse" xlink:href="#id0" x1="154.383" y1="12.8774" x2="161.162" y2="18.6788">
  </linearGradient>
  <linearGradient id="id95" gradientUnits="userSpaceOnUse" xlink:href="#id0" x1="143.925" y1="16.4306" x2="151.505" y2="21.5204">
  </linearGradient>
  <linearGradient id="id96" gradientUnits="userSpaceOnUse" xlink:href="#id0" x1="125.908" y1="25.6057" x2="134.198" y2="29.3033">
  </linearGradient>
  <linearGradient id="id97" gradientUnits="userSpaceOnUse" xlink:href="#id0" x1="117.31" y1="31.5208" x2="125.688" y2="34.7466">
  </linearGradient>
  <linearGradient id="id98" gradientUnits="userSpaceOnUse" xlink:href="#id4" x1="105.473" y1="41.6842" x2="115.103" y2="43.5444">
  </linearGradient>
  <linearGradient id="id99" gradientUnits="userSpaceOnUse" xlink:href="#id4" x1="105.473" y1="243.867" x2="115.103" y2="242.007">
  </linearGradient>
  <linearGradient id="id100" gradientUnits="userSpaceOnUse" xlink:href="#id0" x1="117.31" y1="254.03" x2="125.688" y2="250.805">
  </linearGradient>
  <linearGradient id="id101" gradientUnits="userSpaceOnUse" xlink:href="#id0" x1="125.908" y1="259.946" x2="134.198" y2="256.248">
  </linearGradient>
  <linearGradient id="id102" gradientUnits="userSpaceOnUse" xlink:href="#id0" x1="143.925" y1="269.121" x2="151.505" y2="264.031">
  </linearGradient>
  <linearGradient id="id103" gradientUnits="userSpaceOnUse" xlink:href="#id0" x1="154.383" y1="272.674" x2="161.162" y2="266.873">
  </linearGradient>
  <linearGradient id="id104" gradientUnits="userSpaceOnUse" xlink:href="#id0" x1="268.11" y1="272.674" x2="261.331" y2="266.873">
  </linearGradient>
  <linearGradient id="id105" gradientUnits="userSpaceOnUse" xlink:href="#id0" x1="278.568" y1="269.121" x2="270.988" y2="264.031">
  </linearGradient>
  <linearGradient id="id106" gradientUnits="userSpaceOnUse" xlink:href="#id0" x1="296.585" y1="259.946" x2="288.295" y2="256.248">
  </linearGradient>
  <linearGradient id="id107" gradientUnits="userSpaceOnUse" xlink:href="#id0" x1="305.183" y1="254.03" x2="296.805" y2="250.805">
  </linearGradient>
  <linearGradient id="id108" gradientUnits="userSpaceOnUse" xlink:href="#id4" x1="317.02" y1="243.867" x2="307.39" y2="242.007">
  </linearGradient>
  <linearGradient id="id109" gradientUnits="userSpaceOnUse" xlink:href="#id4" x1="263.601" y1="11.4085" x2="256.333" y2="17.8571">
  </linearGradient>
  <linearGradient id="id110" gradientUnits="userSpaceOnUse" xlink:href="#id4" x1="158.892" y1="11.4084" x2="166.16" y2="17.8572">
  </linearGradient>
  <linearGradient id="id111" gradientUnits="userSpaceOnUse" xlink:href="#id4" x1="158.892" y1="274.143" x2="166.16" y2="267.694">
  </linearGradient>
  <linearGradient id="id112" gradientUnits="userSpaceOnUse" xlink:href="#id4" x1="263.601" y1="274.143" x2="256.333" y2="267.694">
  </linearGradient>
  <linearGradient id="id113" gradientUnits="userSpaceOnUse" xlink:href="#id1" x1="250.75" y1="272.555" x2="245.762" y2="273.048">
  </linearGradient>
  <linearGradient id="id114" gradientUnits="userSpaceOnUse" xlink:href="#id4" x1="301.283" y1="28.3698" x2="292.157" y2="31.9286">
  </linearGradient>
  <linearGradient id="id115" gradientUnits="userSpaceOnUse" xlink:href="#id4" x1="283.889" y1="18.2652" x2="275.718" y2="23.721">
  </linearGradient>
  <linearGradient id="id116" gradientUnits="userSpaceOnUse" xlink:href="#id4" x1="138.604" y1="18.2652" x2="146.775" y2="23.721">
  </linearGradient>
  <linearGradient id="id117" gradientUnits="userSpaceOnUse" xlink:href="#id4" x1="121.21" y1="28.3698" x2="130.336" y2="31.9286">
  </linearGradient>
  <linearGradient id="id118" gradientUnits="userSpaceOnUse" xlink:href="#id1" x1="171.743" y1="272.555" x2="176.731" y2="273.048">
  </linearGradient>
  <linearGradient id="id119" gradientUnits="userSpaceOnUse" xlink:href="#id1" x1="171.743" y1="12.9961" x2="176.731" y2="12.5039">
  </linearGradient>
  <linearGradient id="id120" gradientUnits="userSpaceOnUse" xlink:href="#id4" x1="121.21" y1="257.182" x2="130.336" y2="253.623">
  </linearGradient>
  <linearGradient id="id121" gradientUnits="userSpaceOnUse" xlink:href="#id4" x1="138.604" y1="267.286" x2="146.775" y2="261.83">
  </linearGradient>
  <linearGradient id="id122" gradientUnits="userSpaceOnUse" xlink:href="#id4" x1="283.889" y1="267.286" x2="275.718" y2="261.83">
  </linearGradient>
  <linearGradient id="id123" gradientUnits="userSpaceOnUse" xlink:href="#id4" x1="301.283" y1="257.182" x2="292.157" y2="253.623">
  </linearGradient>
  <linearGradient id="id124" gradientUnits="userSpaceOnUse" xlink:href="#id1" x1="250.75" y1="12.9961" x2="245.762" y2="12.5039">
  </linearGradient>
  <linearGradient id="id125" gradientUnits="userSpaceOnUse" xlink:href="#id1" x1="343.776" y1="177.525" x2="343.043" y2="182.614">
  </linearGradient>
  <linearGradient id="id126" gradientUnits="userSpaceOnUse" xlink:href="#id1" x1="78.7172" y1="177.525" x2="79.4494" y2="182.614">
  </linearGradient>
  <linearGradient id="id127" gradientUnits="userSpaceOnUse" xlink:href="#id1" x1="78.7172" y1="108.026" x2="79.4494" y2="102.937">
  </linearGradient>
  <linearGradient id="id128" gradientUnits="userSpaceOnUse" xlink:href="#id1" x1="343.776" y1="108.026" x2="343.043" y2="102.937">
  </linearGradient>
  <linearGradient id="id129" gradientUnits="userSpaceOnUse" xlink:href="#id1" x1="256.989" y1="271.398" x2="251.953" y2="272.533">
  </linearGradient>
  <linearGradient id="id130" gradientUnits="userSpaceOnUse" xlink:href="#id1" x1="343.143" y1="183.102" x2="342.094" y2="188.037">
  </linearGradient>
  <linearGradient id="id131" gradientUnits="userSpaceOnUse" xlink:href="#id1" x1="79.3499" y1="183.102" x2="80.3987" y2="188.037">
  </linearGradient>
  <linearGradient id="id132" gradientUnits="userSpaceOnUse" xlink:href="#id1" x1="165.504" y1="271.398" x2="170.54" y2="272.533">
  </linearGradient>
  <linearGradient id="id133" gradientUnits="userSpaceOnUse" xlink:href="#id1" x1="165.504" y1="14.1536" x2="170.54" y2="13.0188">
  </linearGradient>
  <linearGradient id="id134" gradientUnits="userSpaceOnUse" xlink:href="#id1" x1="79.3499" y1="102.449" x2="80.3987" y2="97.5144">
  </linearGradient>
  <linearGradient id="id135" gradientUnits="userSpaceOnUse" xlink:href="#id1" x1="343.143" y1="102.449" x2="342.094" y2="97.5143">
  </linearGradient>
  <linearGradient id="id136" gradientUnits="userSpaceOnUse" xlink:href="#id1" x1="256.989" y1="14.1536" x2="251.953" y2="13.0188">
  </linearGradient>
 </defs>
 <g id="Слой_x0020_1">
  <metadata id="CorelCorpID_0Corel-Layer"/>
  <path class="fil0 str0" d="M78.3833 117.58c0,-58.1706 48.0506,-105.374 107.346,-105.438"/>
  <path class="fil0 str0" d="M78.3833 167.972c0,58.1706 48.0506,105.374 107.346,105.438"/>
  <path class="fil0 str0" d="M344.11 117.58c0,-58.1706 -48.0506,-105.374 -107.346,-105.438"/>
  <path class="fil0 str0" d="M344.11 167.972c0,58.1706 -48.0506,105.374 -107.346,105.438"/>
  <polygon class="fil1 str1" points="77.4389,98.0892 79.3867,89.906 84.4505,91.1098 82.5027,99.293 "/>
  <polygon class="fil2 str1" points="77.4389,187.462 79.3867,195.645 84.4505,194.442 82.5027,186.258 "/>
  <polygon class="fil3 str1" points="345.054,98.0892 343.106,89.906 338.042,91.1097 339.99,99.293 "/>
  <polygon class="fil4 str1" points="345.054,187.462 343.106,195.645 338.042,194.442 339.99,186.258 "/>
  <line class="fil0 str2" x1="192.786" y1="12.1417" x2="229.707" y2= "12.1417" />
  <line class="fil0 str2" x1="192.797" y1="273.43" x2="229.696" y2= "273.43" />
  <line class="fil0 str2" x1="344.009" y1="124.233" x2="344.009" y2= "161.333" />
  <polygon class="fil5 str1" points="147.657,15.2486 155.675,12.5431 157.974,19.0957 149.989,21.8969 "/>
  <polygon class="fil6 str1" points="147.657,270.303 155.675,273.008 157.974,266.456 149.989,263.654 "/>
  <polygon class="fil7 str1" points="274.836,15.2486 266.818,12.5431 264.519,19.0959 272.504,21.8969 "/>
  <polygon class="fil8 str1" points="274.836,270.303 266.818,273.008 264.519,266.456 272.504,263.654 "/>
  <polygon class="fil9 str1" points="177.154,8.8765 185.613,8.6769 185.86,15.6168 177.404,15.9176 "/>
  <polygon class="fil10 str1" points="177.154,276.675 185.613,276.875 185.86,269.935 177.404,269.634 "/>
  <polygon class="fil11 str1" points="245.339,8.8765 236.879,8.6769 236.633,15.6168 245.089,15.9176 "/>
  <polygon class="fil12 str1" points="245.339,276.675 236.879,276.875 236.633,269.935 245.089,269.634 "/>
  <polygon class="fil13 str1" points="128.813,24.0501 136.233,19.9813 139.644,26.0299 132.274,30.1868 "/>
  <polygon class="fil14 str1" points="128.813,261.501 136.233,265.57 139.644,259.522 132.274,255.365 "/>
  <polygon class="fil15 str1" points="293.68,24.0501 286.26,19.9813 282.849,26.0299 290.219,30.1868 "/>
  <polygon class="fil16 str1" points="293.68,261.501 286.26,265.57 282.849,259.522 290.219,255.365 "/>
  <polygon class="fil17 str1" points="112.086,36.0271 118.734,30.7919 123.095,36.1959 116.511,41.5099 "/>
  <polygon class="fil18 str1" points="112.086,249.524 118.734,254.76 123.095,249.356 116.511,244.041 "/>
  <polygon class="fil19 str1" points="310.407,36.0271 303.759,30.7919 299.397,36.1959 305.982,41.5099 "/>
  <polygon class="fil20 str1" points="310.407,249.524 303.759,254.76 299.397,249.356 305.982,244.041 "/>
  <polygon class="fil21 str1" points="98.0937,50.9528 103.434,44.3891 108.873,48.7072 103.611,55.334 "/>
  <polygon class="fil22 str1" points="98.0936,234.599 103.434,241.162 108.873,236.844 103.611,230.218 "/>
  <polygon class="fil23 str1" points="324.399,50.9529 319.058,44.3891 313.62,48.7072 318.881,55.3339 "/>
  <polygon class="fil24 str1" points="324.399,234.599 319.058,241.162 313.62,236.844 318.881,230.218 "/>
  <polygon class="fil25 str1" points="92.8096,59.5239 97.8407,52.167 102.394,55.2787 97.3626,62.6356 "/>
  <polygon class="fil26 str1" points="92.8096,226.028 97.8407,233.384 102.394,230.273 97.3626,222.916 "/>
  <polygon class="fil27 str1" points="329.683,59.5239 324.652,52.167 320.099,55.2787 325.13,62.6356 "/>
  <polygon class="fil28 str1" points="329.683,226.028 324.652,233.384 320.099,230.273 325.13,222.916 "/>
  <polygon class="fil29 str1" points="86.7138,68.3442 90.9693,61.03 97.013,64.4501 92.8456,71.8142 "/>
  <polygon class="fil30 str1" points="86.7138,217.207 90.9693,224.521 97.013,221.101 92.8456,213.737 "/>
  <polygon class="fil31 str1" points="335.779,68.3442 331.524,61.03 325.48,64.4501 329.647,71.8142 "/>
  <polygon class="fil32 str1" points="335.779,217.207 331.524,224.521 325.48,221.101 329.647,213.737 "/>
  <polygon class="fil33 str1" points="78.8641,87.8905 81.763,79.9404 88.3151,82.2411 85.5118,90.2247 "/>
  <polygon class="fil34 str1" points="78.8641,197.661 81.763,205.611 88.3151,203.31 85.5118,195.327 "/>
  <polygon class="fil35 str1" points="343.629,87.8905 340.73,79.9404 334.178,82.2411 336.981,90.2247 "/>
  <polygon class="fil36 str1" points="343.629,197.661 340.73,205.611 334.178,203.31 336.981,195.327 "/>
  <polygon class="fil37 str1" points="74.912,117.409 75.2148,108.952 82.1571,109.118 81.9555,117.577 "/>
  <polygon class="fil38 str1" points="74.912,168.142 75.2148,176.599 82.1571,176.434 81.9555,167.974 "/>
  <polygon class="fil39 str1" points="347.581,117.409 347.278,108.952 340.336,109.118 340.537,117.577 "/>
  <polygon class="fil40 str1" points="347.581,168.142 347.278,176.599 340.336,176.434 340.537,167.974 "/>
  <rect class="fil41 str1" x="196.312" y="6.27062" width="2.52628" height="11.7421"/>
  <rect class="fil41 str1" x="193.838" y="267.443" width="2.52628" height="11.7421"/>
  <rect class="fil41 str1" x="199.226" y="6.27062" width="2.52628" height="11.7421"/>
  <rect class="fil41 str1" x="202.511" y="267.443" width="2.52628" height="11.7421"/>
  <rect class="fil42 str1" x="206.169" y="8.46342" width="4.8309" height="4.47275"/>
  <rect class="fil42 str1" x="208.842" y="272.507" width="4.8309" height="4.47275"/>
  <line class="fil0 str2" x1="78.4338" y1="119.072" x2="78.4338" y2= "161.253" />
  <rect class="fil43 str1" x="340.668" y="127.578" width="6.6811" height="13.4192"/>
  <polygon class="fil44 str1" points="105.18,43.7896 111.515,37.5203 115.396,41.4389 109.06,47.7083 "/>
  <polygon class="fil45 str1" points="105.18,241.762 111.515,248.031 115.396,244.112 109.06,237.843 "/>
  <polygon class="fil46 str1" points="317.313,43.7896 310.978,37.5203 307.097,41.439 313.432,47.7083 "/>
  <polygon class="fil47 str1" points="317.313,241.762 310.978,248.031 307.097,244.112 313.432,237.843 "/>
  <polygon class="fil48 str1" points="82.9511,78.3041 86.6919,70.2144 91.698,72.5278 87.9572,80.6173 "/>
  <polygon class="fil49 str1" points="82.951,207.247 86.6919,215.337 91.698,213.024 87.9572,204.934 "/>
  <polygon class="fil50 str1" points="339.542,78.304 335.801,70.2144 330.795,72.5276 334.536,80.6172 "/>
  <polygon class="fil51 str1" points="339.542,207.247 335.801,215.337 330.795,213.024 334.536,204.934 "/>
  <polygon class="fil52 str1" points="120.537,30.3856 127.897,25.3593 131.009,29.9128 123.648,34.9389 "/>
  <polygon class="fil53 str1" points="120.537,255.166 127.897,260.192 131.009,255.639 123.649,250.613 "/>
  <polygon class="fil54 str1" points="301.956,30.3856 294.595,25.3594 291.484,29.9127 298.844,34.9389 "/>
  <polygon class="fil55 str1" points="301.956,255.166 294.595,260.192 291.484,255.639 298.844,250.613 "/>
  <polygon class="fil56 str1" points="137.525,20.0972 145.795,16.7728 147.853,21.889 139.584,25.2133 "/>
  <polygon class="fil57 str1" points="137.525,265.454 145.795,268.779 147.853,263.662 139.584,260.338 "/>
  <polygon class="fil58 str1" points="284.967,20.0971 276.698,16.7728 274.639,21.889 282.909,25.2133 "/>
  <polygon class="fil59 str1" points="284.967,265.454 276.698,268.779 274.639,263.662 282.909,260.338 "/>
  <polygon class="fil60 str1" points="157.533,13.0399 166.179,10.876 167.519,16.2255 158.873,18.3892 "/>
  <polygon class="fil61 str1" points="157.533,272.512 166.179,274.675 167.519,269.326 158.873,267.162 "/>
  <polygon class="fil62 str1" points="264.96,13.0398 256.314,10.8761 254.974,16.2256 263.62,18.3892 "/>
  <polygon class="fil63 str1" points="264.96,272.512 256.314,274.675 254.974,269.326 263.62,267.162 "/>
  <rect class="fil64 str1" x="193.17" y="9.2989" width="2.7197" height="5.6855"/>
  <rect class="fil64 str1" x="202.289" y="9.2989" width="2.7197" height="5.6855"/>
  <polygon class="fil65 str1" points="210.565,5.4994 216.178,3.9985 217.722,9.7697 212.108,11.2709 "/>
  <rect class="fil64 str1" x="217.914" y="9.3544" width="2.7197" height="5.6855"/>
  <rect class="fil64 str1" x="226.586" y="9.3544" width="2.7197" height="5.6855"/>
  <rect class="fil41 str1" x="217.379" y="267.646" width="2.52628" height="11.7421"/>
  <rect class="fil41 str1" x="226.052" y="267.646" width="2.52628" height="11.7421"/>
  <rect class="fil66 str1" x="184.554" y="7.55465" width="4.99236" height="9.11195"/>
  <rect class="fil66 str1" x="184.554" y="268.885" width="4.99236" height="9.11195"/>
  <rect class="fil67 str1" x="232.947" y="7.55465" width="4.99236" height="9.11195"/>
  <rect class="fil67 str1" x="232.947" y="268.885" width="4.99236" height="9.11195"/>
  <polygon class="fil68 str1" points="164.585,9.6906 169.455,8.593 171.459,17.482 166.588,18.5796 "/>
  <polygon class="fil69 str1" points="164.585,275.861 169.456,276.958 171.459,268.069 166.588,266.972 "/>
  <polygon class="fil70 str1" points="257.908,9.6905 253.037,8.5931 251.034,17.4821 255.904,18.5796 "/>
  <polygon class="fil71 str1" points="257.908,275.861 253.037,276.958 251.034,268.069 255.904,266.972 "/>
  <polygon class="fil72 str1" points="171.305,8.4613 176.274,7.9711 177.168,17.0389 172.2,17.5292 "/>
  <polygon class="fil73 str1" points="171.305,277.09 176.274,277.58 177.168,268.512 172.2,268.022 "/>
  <polygon class="fil74 str1" points="251.187,8.4613 246.219,7.971 245.324,17.039 250.293,17.5292 "/>
  <polygon class="fil75 str1" points="251.187,277.09 246.219,277.58 245.324,268.512 250.293,268.022 "/>
  <polygon class="fil76 str1" points="73.8778,121.568 73.8778,116.576 82.9898,116.576 82.9898,121.568 "/>
  <polygon class="fil77 str1" points="73.8778,163.983 73.8778,168.976 82.9898,168.976 82.9898,163.983 "/>
  <polygon class="fil78 str1" points="348.615,121.568 348.615,116.576 339.503,116.576 339.503,121.568 "/>
  <polygon class="fil79 str1" points="348.615,163.983 348.615,168.976 339.503,168.976 339.503,163.983 "/>
  <polygon class="fil80 str1" points="74.2185,107.304 74.9294,102.362 83.9485,103.66 83.2375,108.601 "/>
  <polygon class="fil81 str1" points="74.2184,178.248 74.9294,183.189 83.9485,181.892 83.2375,176.95 "/>
  <polygon class="fil82 str1" points="348.274,107.304 347.563,102.362 338.544,103.66 339.255,108.601 "/>
  <polygon class="fil83 str1" points="348.274,178.248 347.563,183.189 338.544,181.892 339.255,176.95 "/>
  <polygon class="fil84 str1" points="74.899,101.476 75.9369,96.5931 84.8498,98.4871 83.8121,103.37 "/>
  <polygon class="fil85 str1" points="74.8992,184.075 75.9369,188.958 84.8498,187.064 83.8121,182.181 "/>
  <polygon class="fil86 str1" points="347.594,101.476 346.556,96.5931 337.643,98.4872 338.681,103.37 "/>
  <polygon class="fil87 str1" points="347.594,184.075 346.556,188.958 337.643,187.064 338.681,182.181 "/>
  <polygon class="fil88 str1" points="90.4975,60.7453 92.7036,57.3786 99.4125,61.7738 97.2062,65.1408 "/>
  <polygon class="fil89 str1" points="90.4975,224.806 92.7034,228.173 99.4123,223.778 97.2063,220.411 "/>
  <polygon class="fil90 str1" points="331.995,60.7452 329.789,57.3783 323.081,61.7739 325.286,65.1408 "/>
  <polygon class="fil91 str1" points="331.995,224.806 329.789,228.173 323.081,223.778 325.286,220.411 "/>
  <polygon class="fil92 str1" points="96.0101,52.8125 98.4217,49.59 104.843,54.3964 102.431,57.6188 "/>
  <polygon class="fil93 str1" points="96.0098,232.739 98.422,235.961 104.843,231.155 102.431,227.933 "/>
  <polygon class="fil94 str1" points="326.483,52.8124 324.071,49.59 317.65,54.3964 320.062,57.6188 "/>
  <polygon class="fil95 str1" points="326.483,232.739 324.071,235.961 317.65,231.155 320.062,227.933 "/>
  <polygon class="fil96 str1" points="77.7271,90.6139 78.8784,86.7568 86.5638,89.0511 85.4125,92.9081 "/>
  <polygon class="fil97 str1" points="77.727,194.938 78.8785,198.795 86.5639,196.5 85.4125,192.643 "/>
  <polygon class="fil98 str1" points="344.766,90.6137 343.614,86.7567 335.929,89.0511 337.08,92.9081 "/>
  <polygon class="fil99 str1" points="344.766,194.938 343.614,198.795 335.929,196.5 337.08,192.643 "/>
  <polygon class="fil100 str1" points="80.8376,80.7263 82.2806,76.9687 89.7681,79.844 88.3252,83.6017 "/>
  <polygon class="fil101 str1" points="80.8376,204.825 82.2807,208.583 89.7681,205.707 88.3251,201.95 "/>
  <polygon class="fil102 str1" points="341.655,80.7263 340.212,76.9687 332.725,79.8441 334.168,83.6017 "/>
  <polygon class="fil103 str1" points="341.655,204.825 340.212,208.583 332.725,205.707 334.168,201.95 "/>
  <polygon class="fil104 str1" points="74.6497,110.9 74.7974,106.878 82.8127,107.172 82.6653,111.194 "/>
  <polygon class="fil105 str1" points="74.6499,174.651 74.7975,178.674 82.8127,178.379 82.6651,174.357 "/>
  <polygon class="fil106 str1" points="347.843,110.9 347.695,106.878 339.68,107.172 339.828,111.195 "/>
  <polygon class="fil107 str1" points="347.843,174.651 347.695,178.674 339.68,178.379 339.828,174.357 "/>
  <rect class="fil108 str1" x="74.4148" y="120.301" width="8.038" height="3.9919"/>
  <rect class="fil108 str1" x="74.4148" y="161.259" width="8.038" height="3.9919"/>
  <rect class="fil109 str1" x="340.04" y="120.301" width="8.038" height="3.9919"/>
  <rect class="fil109 str1" x="340.04" y="161.259" width="8.038" height="3.9919"/>
  <polygon class="fil110 str1" points="117.527,31.0458 120.8,28.7016 125.47,35.2214 122.198,37.5659 "/>
  <polygon class="fil111 str1" points="117.527,254.506 120.799,256.85 125.47,250.33 122.198,247.986 "/>
  <polygon class="fil112 str1" points="304.966,31.0458 301.694,28.7015 297.023,35.2215 300.295,37.5658 "/>
  <polygon class="fil113 str1" points="304.966,254.506 301.694,256.85 297.023,250.33 300.295,247.986 "/>
  <polygon class="fil114 str1" points="126.195,25.1624 129.585,22.9918 133.91,29.7465 130.52,31.9171 "/>
  <polygon class="fil115 str1" points="126.195,260.389 129.585,262.56 133.91,255.805 130.52,253.634 "/>
  <polygon class="fil116 str1" points="296.298,25.1624 292.908,22.9919 288.583,29.7465 291.973,31.917 "/>
  <polygon class="fil117 str1" points="296.298,260.389 292.908,262.56 288.583,255.805 291.973,253.634 "/>
  <polygon class="fil118 str1" points="144.306,16.0577 148.017,14.4986 151.124,21.8935 147.413,23.4521 "/>
  <polygon class="fil119 str1" points="144.306,269.494 148.017,271.053 151.124,263.658 147.413,262.099 "/>
  <polygon class="fil120 str1" points="278.187,16.0577 274.476,14.4987 271.369,21.8932 275.08,23.4523 "/>
  <polygon class="fil121 str1" points="278.187,269.494 274.476,271.053 271.369,263.658 275.08,262.099 "/>
  <polygon class="fil122 str1" points="154.726,12.4838 158.593,11.3668 160.819,19.0723 156.952,20.1894 "/>
  <polygon class="fil123 str1" points="154.726,273.067 158.593,274.185 160.819,266.479 156.952,265.362 "/>
  <polygon class="fil124 str1" points="267.767,12.484 263.9,11.3667 261.674,19.0722 265.541,20.1894 "/>
  <polygon class="fil125 str1" points="267.767,273.067 263.9,274.185 261.674,266.479 265.541,265.362 "/>
  <polygon class="fil126 str1" points="168.309,9.5542 172.269,8.8333 173.706,16.7245 169.746,17.4452 "/>
  <polygon class="fil127 str1" points="168.309,275.997 172.269,276.718 173.706,268.827 169.746,268.106 "/>
  <polygon class="fil128 str1" points="254.184,9.5543 250.224,8.8333 248.787,16.7242 252.747,17.4452 "/>
  <polygon class="fil129 str1" points="254.184,275.997 250.224,276.718 248.787,268.827 252.747,268.106 "/>
  <polygon class="fil130 str1" points="175.749,8.4552 179.774,8.3867 179.911,16.4062 175.886,16.4747 "/>
  <polygon class="fil131 str1" points="175.75,277.096 179.774,277.165 179.911,269.145 175.886,269.077 "/>
  <polygon class="fil132 str1" points="246.743,8.4552 242.719,8.3867 242.582,16.4062 246.607,16.4747 "/>
  <polygon class="fil133 str1" points="246.743,277.096 242.719,277.165 242.582,269.145 246.607,269.077 "/>
  <polygon class="fil134 str1" points="188.794,16.1607 188.794,8.1227 192.786,8.1227 192.786,16.1607 "/>
  <polygon class="fil135 str1" points="188.794,269.391 188.794,277.429 192.786,277.429 192.786,269.391 "/>
  <polygon class="fil136 str1" points="233.699,16.1607 233.699,8.1227 229.707,8.1227 229.707,16.1607 "/>
  <polygon class="fil137 str1" points="233.699,269.391 233.699,277.429 229.707,277.429 229.707,269.391 "/>
 </g>
</svg>
